<svg width="128" height="112" viewBox="0 0 128 112" fill="none" xmlns="http://www.w3.org/2000/svg">
<path d="M15.6807 26.2515V31.4639H21.8159V34.7793C21.5311 34.9046 21.1494 35.0243 20.6709 35.1382C20.1924 35.2407 19.6797 35.3262 19.1328 35.3945C18.5973 35.4515 18.0846 35.48 17.5947 35.48C15.5326 35.48 14.0002 34.8761 12.9976 33.6685C11.995 32.4608 11.4937 30.6208 11.4937 28.1484C11.4937 25.8356 11.9779 24.0355 12.9463 22.748C13.9147 21.4492 15.2705 20.7998 17.0137 20.7998C18.21 20.7998 19.2354 21.1131 20.0898 21.7397C20.9443 22.355 21.5938 23.2607 22.0381 24.457L27.1992 22.4062C26.3447 20.0365 25.0402 18.2306 23.2856 16.9888C21.5425 15.7355 19.4404 15.1089 16.9795 15.1089C14.5983 15.1089 12.4906 15.6672 10.6562 16.7837C8.83333 17.8888 7.40348 19.4212 6.3667 21.3809C5.32992 23.3405 4.81152 25.5964 4.81152 28.1484C4.81152 30.7347 5.34131 33.0076 6.40088 34.9673C7.47184 36.9269 8.95866 38.4593 10.8613 39.5645C12.7754 40.6582 14.9914 41.2051 17.5093 41.2051C19.2183 41.2051 20.7336 41.0171 22.0552 40.6411C23.3768 40.2537 24.5617 39.6955 25.6099 38.9663C26.658 38.2371 27.6151 37.3428 28.481 36.2832V26.2515H15.6807ZM45.3363 15.1089C43.2286 15.1089 41.4228 15.4621 39.9188 16.1685C38.4149 16.8748 37.1902 17.8433 36.2445 19.0737C35.2989 20.2928 34.6039 21.6828 34.1596 23.2437C33.7152 24.8045 33.4931 26.4395 33.4931 28.1484C33.4931 29.8574 33.7152 31.4924 34.1596 33.0532C34.6153 34.6141 35.316 36.0098 36.2616 37.2402C37.2187 38.4593 38.4434 39.422 39.9359 40.1284C41.4398 40.8348 43.24 41.188 45.3363 41.188C47.4327 41.188 49.2271 40.8348 50.7196 40.1284C52.2235 39.422 53.4483 38.4593 54.3939 37.2402C55.3396 36.0098 56.0346 34.6141 56.4789 33.0532C56.9232 31.4924 57.1454 29.8574 57.1454 28.1484C57.1454 26.4395 56.9232 24.8045 56.4789 23.2437C56.0346 21.6828 55.3396 20.2928 54.3939 19.0737C53.4597 17.8433 52.2406 16.8748 50.7367 16.1685C49.2442 15.4621 47.4441 15.1089 45.3363 15.1089ZM45.3363 20.8511C46.2592 20.8511 47.108 21.0903 47.8827 21.5688C48.6575 22.036 49.2727 22.805 49.7284 23.876C50.1955 24.9469 50.4291 26.3711 50.4291 28.1484C50.4291 29.9258 50.2012 31.3499 49.7455 32.4209C49.2898 33.4805 48.6745 34.2495 47.8998 34.728C47.1365 35.2065 46.282 35.4458 45.3363 35.4458C44.4021 35.4458 43.5476 35.2065 42.7729 34.728C41.9981 34.2495 41.3829 33.4805 40.9271 32.4209C40.4714 31.3499 40.2436 29.9258 40.2436 28.1484C40.2436 26.3711 40.4771 24.9469 40.9442 23.876C41.4114 22.805 42.0266 22.036 42.7899 21.5688C43.5647 21.0903 44.4135 20.8511 45.3363 20.8511ZM84.8822 15.1089C82.7745 15.1089 80.9687 15.4621 79.4647 16.1685C77.9608 16.8748 76.7361 17.8433 75.7904 19.0737C74.8448 20.2928 74.1498 21.6828 73.7055 23.2437C73.2611 24.8045 73.039 26.4395 73.039 28.1484C73.039 29.8574 73.2611 31.4924 73.7055 33.0532C74.1612 34.6141 74.8619 36.0098 75.8075 37.2402C76.7645 38.4593 77.9893 39.422 79.4818 40.1284C80.9857 40.8348 82.7859 41.188 84.8822 41.188C86.9786 41.188 88.773 40.8348 90.2655 40.1284C91.7694 39.422 92.9942 38.4593 93.9398 37.2402C94.8855 36.0098 95.5805 34.6141 96.0248 33.0532C96.4691 31.4924 96.6913 29.8574 96.6913 28.1484C96.6913 26.4395 96.4691 24.8045 96.0248 23.2437C95.5805 21.6828 94.8855 20.2928 93.9398 19.0737C93.0056 17.8433 91.7865 16.8748 90.2826 16.1685C88.7901 15.4621 86.99 15.1089 84.8822 15.1089ZM84.8822 20.8511C85.8051 20.8511 86.6539 21.0903 87.4286 21.5688C88.2034 22.036 88.8186 22.805 89.2743 23.876C89.7414 24.9469 89.975 26.3711 89.975 28.1484C89.975 29.9258 89.7471 31.3499 89.2914 32.4209C88.8357 33.4805 88.2204 34.2495 87.4457 34.728C86.6824 35.2065 85.8279 35.4458 84.8822 35.4458C83.948 35.4458 83.0935 35.2065 82.3187 34.728C81.544 34.2495 80.9288 33.4805 80.473 32.4209C80.0173 31.3499 79.7895 29.9258 79.7895 28.1484C79.7895 26.3711 80.023 24.9469 80.4901 23.876C80.9573 22.805 81.5725 22.036 82.3358 21.5688C83.1106 21.0903 83.9594 20.8511 84.8822 20.8511Z" fill="white"/>
<path d="M13.2119 76V67.2812H20.3056V62.5156H13.2119V57.7031H22.6181V52.4844H7.11812V76H13.2119ZM45.6454 50.1089C43.5376 50.1089 41.7318 50.4621 40.2279 51.1685C38.724 51.8748 37.4992 52.8433 36.5536 54.0737C35.6079 55.2928 34.9129 56.6828 34.4686 58.2437C34.0243 59.8045 33.8021 61.4395 33.8021 63.1484C33.8021 64.8574 34.0243 66.4924 34.4686 68.0532C34.9243 69.6141 35.625 71.0098 36.5706 72.2402C37.5277 73.4593 38.7524 74.422 40.245 75.1284C41.7489 75.8348 43.549 76.188 45.6454 76.188C47.7417 76.188 49.5361 75.8348 51.0287 75.1284C52.5326 74.422 53.7573 73.4593 54.703 72.2402C55.6486 71.0098 56.3436 69.6141 56.7879 68.0532C57.2323 66.4924 57.4544 64.8574 57.4544 63.1484C57.4544 61.4395 57.2323 59.8045 56.7879 58.2437C56.3436 56.6828 55.6486 55.2928 54.703 54.0737C53.7687 52.8433 52.5496 51.8748 51.0457 51.1685C49.5532 50.4621 47.7531 50.1089 45.6454 50.1089ZM45.6454 55.8511C46.5682 55.8511 47.417 56.0903 48.1917 56.5688C48.9665 57.036 49.5817 57.805 50.0374 58.876C50.5046 59.9469 50.7381 61.3711 50.7381 63.1484C50.7381 64.9258 50.5103 66.3499 50.0545 67.4209C49.5988 68.4805 48.9836 69.2495 48.2088 69.728C47.4455 70.2065 46.591 70.4458 45.6454 70.4458C44.7111 70.4458 43.8566 70.2065 43.0819 69.728C42.3071 69.2495 41.6919 68.4805 41.2362 67.4209C40.7804 66.3499 40.5526 64.9258 40.5526 63.1484C40.5526 61.3711 40.7861 59.9469 41.2533 58.876C41.7204 57.805 42.3356 57.036 43.099 56.5688C43.8737 56.0903 44.7225 55.8511 45.6454 55.8511ZM82.0413 50.1089C79.9335 50.1089 78.1277 50.4621 76.6238 51.1685C75.1199 51.8748 73.8951 52.8433 72.9495 54.0737C72.0038 55.2928 71.3088 56.6828 70.8645 58.2437C70.4202 59.8045 70.198 61.4395 70.198 63.1484C70.198 64.8574 70.4202 66.4924 70.8645 68.0532C71.3202 69.6141 72.0209 71.0098 72.9665 72.2402C73.9236 73.4593 75.1483 74.422 76.6409 75.1284C78.1448 75.8348 79.9449 76.188 82.0413 76.188C84.1376 76.188 85.932 75.8348 87.4246 75.1284C88.9285 74.422 90.1532 73.4593 91.0989 72.2402C92.0445 71.0098 92.7395 69.6141 93.1838 68.0532C93.6282 66.4924 93.8503 64.8574 93.8503 63.1484C93.8503 61.4395 93.6282 59.8045 93.1838 58.2437C92.7395 56.6828 92.0445 55.2928 91.0989 54.0737C90.1646 52.8433 88.9455 51.8748 87.4416 51.1685C85.9491 50.4621 84.149 50.1089 82.0413 50.1089ZM82.0413 55.8511C82.9641 55.8511 83.8129 56.0903 84.5876 56.5688C85.3624 57.036 85.9776 57.805 86.4333 58.876C86.9005 59.9469 87.134 61.3711 87.134 63.1484C87.134 64.9258 86.9062 66.3499 86.4504 67.4209C85.9947 68.4805 85.3795 69.2495 84.6047 69.728C83.8414 70.2065 82.9869 70.4458 82.0413 70.4458C81.107 70.4458 80.2525 70.2065 79.4778 69.728C78.703 69.2495 78.0878 68.4805 77.6321 67.4209C77.1763 66.3499 76.9485 64.9258 76.9485 63.1484C76.9485 61.3711 77.182 59.9469 77.6492 58.876C78.1163 57.805 78.7315 57.036 79.4949 56.5688C80.2696 56.0903 81.1184 55.8511 82.0413 55.8511Z" fill="white"/>
<path d="M14.5938 96.5156V101.281H20.2031V104.312C19.9427 104.427 19.5938 104.536 19.1562 104.641C18.7188 104.734 18.25 104.812 17.75 104.875C17.2604 104.927 16.7917 104.953 16.3438 104.953C14.4583 104.953 13.0573 104.401 12.1406 103.297C11.224 102.193 10.7656 100.51 10.7656 98.25C10.7656 96.1354 11.2083 94.4896 12.0938 93.3125C12.9792 92.125 14.2188 91.5312 15.8125 91.5312C16.9062 91.5312 17.8438 91.8177 18.625 92.3906C19.4062 92.9531 20 93.7812 20.4062 94.875L25.125 93C24.3438 90.8333 23.151 89.1823 21.5469 88.0469C19.9531 86.901 18.0312 86.3281 15.7812 86.3281C13.6042 86.3281 11.6771 86.8385 10 87.8594C8.33333 88.8698 7.02604 90.2708 6.07812 92.0625C5.13021 93.8542 4.65625 95.9167 4.65625 98.25C4.65625 100.615 5.14062 102.693 6.10938 104.484C7.08854 106.276 8.44792 107.677 10.1875 108.688C11.9375 109.688 13.9635 110.188 16.2656 110.188C17.8281 110.188 19.2135 110.016 20.4219 109.672C21.6302 109.318 22.7135 108.807 23.6719 108.141C24.6302 107.474 25.5052 106.656 26.2969 105.688V96.5156H14.5938Z" fill="white"/>
<path d="M122.191 28.1484C122.191 26.5192 121.974 24.9355 121.542 23.3975C121.109 21.8594 120.419 20.4808 119.474 19.2617C118.528 18.0426 117.286 17.0742 115.748 16.3564C114.21 15.6387 112.336 15.2798 110.125 15.2798H101V41H110.125C112.336 41 114.21 40.6411 115.748 39.9233C117.286 39.2056 118.528 38.2371 119.474 37.0181C120.419 35.799 121.109 34.4261 121.542 32.8994C121.974 31.3613 122.191 29.7777 122.191 28.1484ZM115.509 28.1484C115.509 29.9486 115.338 31.3784 114.996 32.438C114.666 33.4862 114.107 34.2324 113.321 34.6768C112.535 35.1211 111.47 35.3433 110.125 35.3433H107.665V20.9878H110.125C111.47 20.9878 112.535 21.21 113.321 21.6543C114.107 22.0986 114.666 22.8449 114.996 23.8931C115.338 24.9299 115.509 26.3483 115.509 28.1484Z" fill="white"/>
<path d="M122.191 63.1484C122.191 61.5192 121.974 59.9355 121.542 58.3975C121.109 56.8594 120.419 55.4808 119.474 54.2617C118.528 53.0426 117.286 52.0742 115.748 51.3564C114.21 50.6387 112.336 50.2798 110.125 50.2798H101V76H110.125C112.336 76 114.21 75.6411 115.748 74.9233C117.286 74.2056 118.528 73.2371 119.474 72.0181C120.419 70.799 121.109 69.4261 121.542 67.8994C121.974 66.3613 122.191 64.7777 122.191 63.1484ZM115.509 63.1484C115.509 64.9486 115.338 66.3784 114.996 67.438C114.666 68.4862 114.107 69.2324 113.321 69.6768C112.535 70.1211 111.47 70.3433 110.125 70.3433H107.665V55.9878H110.125C111.47 55.9878 112.535 56.21 113.321 56.6543C114.107 57.0986 114.666 57.8449 114.996 58.8931C115.338 59.9299 115.509 61.3483 115.509 63.1484Z" fill="white"/>
<path d="M52.3281 103.828H42.9219V99.625H51.4531V94.8594H42.9219V90.7031H52.3281V85.4844H36.8281V109H52.3281V103.828ZM82.1343 83.1089C80.1747 83.1089 78.5511 83.4108 77.2637 84.0146C75.9876 84.6071 74.9737 85.3932 74.2217 86.373C73.4697 87.3415 72.9115 88.4067 72.5469 89.5688C72.1823 90.731 71.9431 91.8874 71.8291 93.0381C71.7266 94.1888 71.6753 95.2256 71.6753 96.1484C71.6753 97.0713 71.7266 98.1081 71.8291 99.2588C71.9431 100.41 72.1823 101.566 72.5469 102.728C72.9115 103.89 73.4697 104.961 74.2217 105.941C74.9737 106.909 75.9876 107.695 77.2637 108.299C78.5511 108.892 80.1747 109.188 82.1343 109.188C84.0939 109.188 85.7118 108.892 86.9878 108.299C88.2639 107.695 89.2722 106.909 90.0127 105.941C90.7647 104.961 91.3172 103.89 91.6704 102.728C92.035 101.566 92.2686 100.41 92.3711 99.2588C92.4737 98.1081 92.5249 97.0713 92.5249 96.1484C92.5249 95.2256 92.4737 94.1888 92.3711 93.0381C92.2686 91.8874 92.035 90.731 91.6704 89.5688C91.3172 88.4067 90.7647 87.3415 90.0127 86.373C89.2722 85.3932 88.2639 84.6071 86.9878 84.0146C85.7118 83.4108 84.0939 83.1089 82.1343 83.1089ZM82.1343 89.3125C82.7381 89.3125 83.2736 89.4036 83.7407 89.5859C84.2079 89.7682 84.5952 90.1043 84.9029 90.5942C85.2219 91.0728 85.4611 91.762 85.6206 92.6621C85.7801 93.5508 85.8599 94.7129 85.8599 96.1484C85.8599 97.584 85.7801 98.7518 85.6206 99.6519C85.4611 100.552 85.2219 101.247 84.9029 101.737C84.5952 102.227 84.2079 102.569 83.7407 102.762C83.2736 102.944 82.7381 103.036 82.1343 103.036C81.5305 103.036 80.9893 102.944 80.5108 102.762C80.0436 102.569 79.6449 102.227 79.3145 101.737C78.9955 101.236 78.7505 100.535 78.5796 99.6348C78.4201 98.7347 78.3404 97.5726 78.3404 96.1484C78.3404 94.7243 78.4201 93.5679 78.5796 92.6792C78.7505 91.7791 78.9955 91.0841 79.3145 90.5942C79.6449 90.1043 80.0436 89.7682 80.5108 89.5859C80.9893 89.4036 81.5305 89.3125 82.1343 89.3125Z" fill="white"/>
<circle cx="46.5963" cy="27.5963" r="15.5963" fill="#A8E89D"/>
<circle cx="82.789" cy="27.5963" r="15.5963" fill="#A8E89D"/>
<circle cx="81.789" cy="61.789" r="15.5963" fill="#A8E89D"/>
<circle cx="46.5963" cy="62.789" r="15.5963" fill="#A8E89D"/>
<circle cx="81.789" cy="95.9816" r="15.5963" fill="#A8E89D"/>
</svg>
